<svg fill="#5e5e5e" height="496pt" viewBox="0 0 496 496" width="496pt" xmlns="http://www.w3.org/2000/svg">
    <path d="m470.808594 152h-1.878906c-44.859376-92.441406-139.488282-152-242.449219-152-60.136719 0-119.28125 20.457031-166.558594 57.609375l-39.097656 30.710937c-11.71875 1.574219-20.824219 11.535157-20.824219 23.679688 0 13.230469 10.769531 24 24 24 44.496094 0 84.617188 28.097656 99.824219 69.921875l6.078125 16.710937 46.097656 12.566407v60.800781c0 31.273438 20.078125 57.878906 48 67.800781v20.199219h-16v48h8c4.414062 0 8 3.59375 8 8s-3.585938 8-8 8h-8v48h80v-48h-8c-4.414062 0-8-3.59375-8-8s3.585938-8 8-8h8v-48h-16v-20.199219c27.921875-9.914062 48-36.519531 48-67.800781v-8c8.824219 0 16-7.175781 16-16v-49.113281l138.542969-20.78125c12.234375-1.832031 21.457031-12.546875 21.457031-24.914063 0-13.886718-11.304688-25.191406-25.191406-25.191406zm-39.785156-32c7.808593 10.640625 14.792968 21.96875 20.914062 33.894531-85.867188 14.625-173.449219 22.105469-260.53125 22.105469h-25.917969c-11.191406-27.304688-30.511719-49.824219-54.457031-65.273438l5.074219-3.796874c30.023437-22.523438 67.230469-34.929688 104.773437-34.929688 26.96875 0 53.976563 6.375 78.105469 18.441406 38.679687 19.335938 81.984375 29.558594 125.222656 29.558594zm-361.214844-49.816406c24.542968-19.289063 52.558594-33.589844 82.191406-42.71875v20.535156h16v-24.96875c10.527344-2.503906 21.214844-4.320312 32-5.464844v22.433594h16v-23.558594c3.496094-.144531 6.976562-.441406 10.480469-.441406 7.230469 0 14.398437.40625 21.519531 1.023438v22.976562h16v-21.144531c10.863281 1.640625 21.542969 4 32 7.007812v30.136719h16v-24.929688c11 3.96875 21.679688 8.691407 32 14.105469v26.824219h16v-17.703125c21.679688 13.445313 41.335938 30.101563 58.183594 49.519531-38.757813-.90625-77.367188-10.359375-112.039063-27.695312-26.335937-13.160156-55.816406-20.121094-85.265625-20.121094-40.984375 0-81.605468 13.542969-114.382812 38.128906l-10.671875 8c-15.304688-7.402344-32.015625-12.074218-49.410157-13.570312zm202.191406 347.183594c-9.3125 3.304687-16 12.199218-16 22.632812s6.6875 19.328125 16 22.632812v17.367188h-48v-17.367188c9.3125-3.304687 16-12.199218 16-22.632812s-6.6875-19.328125-16-22.632812v-17.367188h48zm-16-33.367188h-16v-16.472656c2.632812.296875 5.296875.472656 8 .472656s5.367188-.175781 8-.472656zm48-88c0 30.878906-25.128906 56-56 56s-56-25.121094-56-56v-55.273438c5.726562 2.609376 11.078125 5.882813 16 9.746094v45.527344c0 22.054688 17.945312 40 40 40s40-17.945312 40-40v-8h16zm-80-28.816406c3.425781 4.886718 6.320312 10.175781 8.566406 15.792968l2.019532 5.023438h37.414062v8c0 13.230469-10.769531 24-24 24s-24-10.769531-24-24zm248.167969-80.894532-138.550781 20.78125c-7.890626 1.1875-13.617188 7.839844-13.617188 15.816407v49.113281h-74.761719c-11.703125-24.886719-34.039062-43.785156-60.703125-51.054688l-42.4375-11.578124-3.25-8.917969c-17.480468-48.113281-63.640625-80.449219-114.847656-80.449219-4.414062 0-8-3.59375-8-8s3.585938-8 8-8h10.359375c52.65625 0 100.128906 33.246094 118.128906 82.734375l1.910157 5.265625h37.007812c91.113281 0 182.792969-8.023438 272.503906-23.855469.53125-.097656 1.066406-.144531 1.59375-.144531h5.296875c5.070313 0 9.199219 4.128906 9.199219 9.191406 0 4.511719-3.367188 8.425782-7.832031 9.097656zm0 0"/>
    <path d="m228.679688 228.734375c8.578124 5.722656 15.550781 13.625 20.167968 22.839844l2.207032 4.425781h52.945312v-48h-106.425781zm59.320312-4.734375v16h-27.238281c-3.457031-5.878906-7.691407-11.265625-12.570313-16zm0 0"/>
    <path d="m264 104c-13.769531-10.320312-30.816406-16-48-16s-34.230469 5.679688-48.007812 16l-19.183594 14.398438 31.191406 41.601562h72l31.191406-41.601562zm-20 40h-56l-16.808594-22.398438 6.402344-4.800781c11.015625-8.257812 24.652344-12.800781 38.40625-12.800781s27.390625 4.542969 38.398438 12.800781l6.410156 4.800781zm0 0"/>
    <path d="m413.097656 149.601562-25.511718-12.761718c-21.875-10.9375-45.121094-18.910156-69.097657-23.703125l-9.855469-1.976563-37.710937 50.289063zm-97.722656-20.769531c12.167969 2.433594 24.128906 5.734375 35.792969 9.871094l-46.078125 3.839844zm0 0"/>
</svg>