<svg fill="#5e5e5e" height="496pt" viewBox="-64 0 496 496" width="496pt" xmlns="http://www.w3.org/2000/svg">
    <path d="m184 248c17.648438 0 32-14.351562 32-32h-16c0 8.824219-7.175781 16-16 16s-16-7.175781-16-16h-16c0 17.648438 14.351562 32 32 32zm0 0"/>
    <path d="m368 359.832031c0-26.9375-19.207031-50.078125-45.679688-55.039062l-82.320312-15.433594v-24.328125c11.3125-11.101562 19.335938-25.527344 22.488281-41.6875 18.960938-3.128906 33.511719-19.511719 33.511719-39.34375v-72c0-61.761719-50.238281-112-112-112s-112 50.238281-112 112v72c0 19.832031 14.550781 36.214844 33.511719 39.34375 3.152343 16.160156 11.175781 30.585938 22.488281 41.6875v24.328125l-82.320312 15.441406c-26.472657 4.960938-45.679688 28.101563-45.679688 55.03125v72.167969h16v64h336v-64h16zm-276.425781-273.457031 14.640625 25.625h-18.214844c0-8.878906 1.3125-17.449219 3.574219-25.625zm12.425781 41.625v16.808594c-5.945312 1.214844-11.328125 3.855468-16 7.390625v-24.199219zm16 0h128v44.6875l-8.96875 8.96875c-1.496094 1.488281-3.550781 2.34375-5.65625 2.34375h-28.429688l-8-16h-25.890624l-8 16h-28.429688c-2.105469 0-4.167969-.855469-5.65625-2.34375l-8.96875-8.96875zm30.238281-16-19.894531-79.574219c4.785156-3.242187 9.902344-6.011719 15.25-8.355469l15.992188 71.929688h44.828124l15.984376-71.929688c5.34375 2.34375 10.464843 5.121094 15.25 8.355469l-19.886719 79.574219zm129.761719 0h-18.214844l14.640625-25.617188c2.269531 8.167969 3.574219 16.738282 3.574219 25.617188zm-16 16h16v24.207031c-4.671875-3.535156-10.054688-6.183593-16-7.390625zm0 78.527344v-45.046875c9.289062 3.3125 16 12.113281 16 22.527343 0 10.417969-6.710938 19.207032-16 22.519532zm4.894531-139.214844-25.535156 44.6875h-9.121094l17.082031-68.328125c7.007813 6.902344 12.945313 14.871094 17.574219 23.640625zm-61.742187-48.375-13.566406 61.0625h-19.171876l-13.558593-61.0625c7.425781-1.847656 15.152343-2.9375 23.144531-2.9375s15.71875 1.089844 23.152344 2.9375zm-90.480469 24.734375 17.089844 68.328125h-9.121094l-25.535156-44.6875c4.628906-8.769531 10.566406-16.738281 17.566406-23.640625zm-28.671875 140.328125c0-10.414062 6.710938-19.214844 16-22.527344v45.046875c-9.289062-3.304687-16-12.105469-16-22.519531zm32 24v-13.105469c4.183594 3.257813 9.238281 5.105469 14.625 5.105469h28.429688c6.113281 0 11.59375-3.390625 14.3125-8.839844l3.578124-7.160156h6.109376l3.578124 7.152344c2.71875 5.457031 8.199219 8.847656 14.3125 8.847656h28.429688c5.386719 0 10.441406-1.847656 14.625-5.105469v13.105469c0 35.289062-28.710938 64-64 64s-64-28.710938-64-64zm64 80c14.574219 0 28.214844-3.984375 40-10.824219v13.054688l-40 13.335937-40-13.335937v-13.054688c11.785156 6.839844 25.425781 10.824219 40 10.824219zm-48.558594 16.246094 40.558594 13.523437v26.230469h16v-26.230469l40.558594-13.523437 73.792968 13.84375c8.90625 14.007812 13.648438 30.117187 13.648438 46.75v51.160156h-16v-64h-16v128h-96v-24h-16v24h-96v-128h-16v64h-16v-51.160156c0-16.632813 4.742188-32.742188 13.648438-46.761719zm-119.441406 55.585937c0-16.519531 10.152344-30.984375 24.984375-37-5.871094 13.167969-8.984375 27.414063-8.984375 42.007813v51.160156h-16zm16 72.167969h32v48h-32zm304 48h-32v-48h32zm16-64h-16v-51.160156c0-14.601563-3.113281-28.847656-8.984375-42.007813 14.832031 6.023438 24.984375 20.488281 24.984375 37zm0 0"/>
    <path d="m176 360h16v32h-16zm0 0"/>
    <path d="m176 408h16v32h-16zm0 0"/>
</svg>