<?xml version="1.0" encoding="iso-8859-1"?>
<!-- Generator: Adobe Illustrator 19.0.0, SVG Export Plug-In . SVG Version: 6.00 Build 0)  -->
<svg fill="#5e5e5e" version="1.1" id="Layer_1" xmlns="http://www.w3.org/2000/svg" xmlns:xlink="http://www.w3.org/1999/xlink" x="0px" y="0px"
	 viewBox="0 0 512 512" style="enable-background:new 0 0 512 512;" xml:space="preserve">
<g transform="translate(1 1)">
	<g>
		<g>
			<path d="M118.467,101.4c5.12,0,8.533-3.413,8.533-8.533V50.2h8.533c5.12,0,8.533-3.413,8.533-8.533s-3.413-8.533-8.533-8.533H127
				v-25.6C127,2.413,123.587-1,118.467-1s-8.533,3.413-8.533,8.533v85.333C109.933,97.987,113.347,101.4,118.467,101.4z"/>
			<path d="M374.467,400.067c5.12,0,8.533-3.413,8.533-8.533V255h25.6c3.413,0,6.827-1.707,8.533-5.12
				c0.853-3.413,0-6.827-2.56-9.387l-128.853-115.2c-22.187-19.627-55.467-19.627-77.653,0l-128.853,115.2
				c-2.56,2.56-3.413,6.827-2.56,9.387s4.267,5.12,7.68,5.12h25.6v136.533c0,5.12,3.413,8.533,8.533,8.533H374.467z M106.52,237.933
				L219.16,137.24c15.36-13.653,39.253-13.653,54.613,0l112.64,100.693h-11.947c-5.12,0-8.533,3.413-8.533,8.533V383H127V246.467
				c0-5.12-3.413-8.533-8.533-8.533H106.52z"/>
			<path d="M502.467,383h-25.6v-8.533c0-5.12-3.413-8.533-8.533-8.533s-8.533,3.413-8.533,8.533V383h-42.667
				c-5.12,0-8.533,3.413-8.533,8.533c0,5.12,3.413,8.533,8.533,8.533h85.333c5.12,0,8.533-3.413,8.533-8.533
				C511,386.413,507.587,383,502.467,383z"/>
			<path d="M92.867,459.8h-8.533c-5.12,0-8.533,3.413-8.533,8.533s3.413,8.533,8.533,8.533h8.533c5.12,0,8.533-3.413,8.533-8.533
				S97.987,459.8,92.867,459.8z"/>
			<path d="M135.533,459.8H127c-5.12,0-8.533,3.413-8.533,8.533s3.413,8.533,8.533,8.533h8.533c5.12,0,8.533-3.413,8.533-8.533
				S140.653,459.8,135.533,459.8z"/>
			<path d="M178.2,459.8h-8.533c-5.12,0-8.533,3.413-8.533,8.533s3.413,8.533,8.533,8.533h8.533c5.12,0,8.533-3.413,8.533-8.533
				S183.32,459.8,178.2,459.8z"/>
			<path d="M220.867,459.8h-8.533c-5.12,0-8.533,3.413-8.533,8.533s3.413,8.533,8.533,8.533h8.533c5.12,0,8.533-3.413,8.533-8.533
				S225.987,459.8,220.867,459.8z"/>
			<path d="M263.533,459.8H255c-5.12,0-8.533,3.413-8.533,8.533s3.413,8.533,8.533,8.533h8.533c5.12,0,8.533-3.413,8.533-8.533
				S268.653,459.8,263.533,459.8z"/>
			<path d="M306.2,459.8h-8.533c-5.12,0-8.533,3.413-8.533,8.533s3.413,8.533,8.533,8.533h8.533c5.12,0,8.533-3.413,8.533-8.533
				S311.32,459.8,306.2,459.8z"/>
			<path d="M348.867,459.8h-8.533c-5.12,0-8.533,3.413-8.533,8.533s3.413,8.533,8.533,8.533h8.533c5.12,0,8.533-3.413,8.533-8.533
				S353.987,459.8,348.867,459.8z"/>
			<path d="M391.533,459.8H383c-5.12,0-8.533,3.413-8.533,8.533s3.413,8.533,8.533,8.533h8.533c5.12,0,8.533-3.413,8.533-8.533
				S396.653,459.8,391.533,459.8z"/>
			<path d="M434.2,459.8h-8.533c-5.12,0-8.533,3.413-8.533,8.533s3.413,8.533,8.533,8.533h8.533c5.12,0,8.533-3.413,8.533-8.533
				S439.32,459.8,434.2,459.8z"/>
			<path d="M502.467,459.8h-34.133c-5.12,0-8.533,3.413-8.533,8.533v34.133c0,5.12,3.413,8.533,8.533,8.533s8.533-3.413,8.533-8.533
				v-25.6h25.6c5.12,0,8.533-3.413,8.533-8.533S507.587,459.8,502.467,459.8z"/>
			<path d="M425.667,50.2h8.533c5.12,0,8.533-3.413,8.533-8.533s-3.413-8.533-8.533-8.533h-8.533c-5.12,0-8.533,3.413-8.533,8.533
				S420.547,50.2,425.667,50.2z"/>
			<path d="M383,50.2h8.533c5.12,0,8.533-3.413,8.533-8.533s-3.413-8.533-8.533-8.533H383c-5.12,0-8.533,3.413-8.533,8.533
				S377.88,50.2,383,50.2z"/>
			<path d="M340.333,50.2h8.533c5.12,0,8.533-3.413,8.533-8.533s-3.413-8.533-8.533-8.533h-8.533c-5.12,0-8.533,3.413-8.533,8.533
				S335.213,50.2,340.333,50.2z"/>
			<path d="M297.667,50.2h8.533c5.12,0,8.533-3.413,8.533-8.533s-3.413-8.533-8.533-8.533h-8.533c-5.12,0-8.533,3.413-8.533,8.533
				S292.547,50.2,297.667,50.2z"/>
			<path d="M255,50.2h8.533c5.12,0,8.533-3.413,8.533-8.533s-3.413-8.533-8.533-8.533H255c-5.12,0-8.533,3.413-8.533,8.533
				S249.88,50.2,255,50.2z"/>
			<path d="M212.333,50.2h8.533c5.12,0,8.533-3.413,8.533-8.533s-3.413-8.533-8.533-8.533h-8.533c-5.12,0-8.533,3.413-8.533,8.533
				S207.213,50.2,212.333,50.2z"/>
			<path d="M169.667,50.2h8.533c5.12,0,8.533-3.413,8.533-8.533s-3.413-8.533-8.533-8.533h-8.533c-5.12,0-8.533,3.413-8.533,8.533
				S164.547,50.2,169.667,50.2z"/>
			<path d="M84.333,50.2c5.12,0,8.533-3.413,8.533-8.533s-3.413-8.533-8.533-8.533H75.8c-5.12,0-8.533,3.413-8.533,8.533
				S70.68,50.2,75.8,50.2H84.333z"/>
			<path d="M468.333,50.2h34.133c5.12,0,8.533-3.413,8.533-8.533s-3.413-8.533-8.533-8.533h-25.6v-25.6
				c0-5.12-3.413-8.533-8.533-8.533S459.8,2.413,459.8,7.533v34.133C459.8,46.787,463.213,50.2,468.333,50.2z"/>
			<path d="M41.667-1c-5.12,0-8.533,3.413-8.533,8.533v25.6h-25.6C2.413,33.133-1,36.547-1,41.667S2.413,50.2,7.533,50.2h34.133
				c5.12,0,8.533-3.413,8.533-8.533V7.533C50.2,2.413,46.787-1,41.667-1z"/>
			<path d="M41.667,75.8c-5.12,0-8.533,3.413-8.533,8.533v8.533c0,5.12,3.413,8.533,8.533,8.533s8.533-3.413,8.533-8.533v-8.533
				C50.2,79.213,46.787,75.8,41.667,75.8z"/>
			<path d="M41.667,118.467c-5.12,0-8.533,3.413-8.533,8.533v8.533c0,5.12,3.413,8.533,8.533,8.533s8.533-3.413,8.533-8.533V127
				C50.2,121.88,46.787,118.467,41.667,118.467z"/>
			<path d="M41.667,161.133c-5.12,0-8.533,3.413-8.533,8.533v8.533c0,5.12,3.413,8.533,8.533,8.533S50.2,183.32,50.2,178.2v-8.533
				C50.2,164.547,46.787,161.133,41.667,161.133z"/>
			<path d="M41.667,203.8c-5.12,0-8.533,3.413-8.533,8.533v8.533c0,5.12,3.413,8.533,8.533,8.533s8.533-3.413,8.533-8.533v-8.533
				C50.2,207.213,46.787,203.8,41.667,203.8z"/>
			<path d="M41.667,246.467c-5.12,0-8.533,3.413-8.533,8.533v8.533c0,5.12,3.413,8.533,8.533,8.533s8.533-3.413,8.533-8.533V255
				C50.2,249.88,46.787,246.467,41.667,246.467z"/>
			<path d="M41.667,289.133c-5.12,0-8.533,3.413-8.533,8.533v8.533c0,5.12,3.413,8.533,8.533,8.533S50.2,311.32,50.2,306.2v-8.533
				C50.2,292.547,46.787,289.133,41.667,289.133z"/>
			<path d="M41.667,331.8c-5.12,0-8.533,3.413-8.533,8.533v8.533c0,5.12,3.413,8.533,8.533,8.533s8.533-3.413,8.533-8.533v-8.533
				C50.2,335.213,46.787,331.8,41.667,331.8z"/>
			<path d="M41.667,374.467c-5.12,0-8.533,3.413-8.533,8.533v8.533c0,5.12,3.413,8.533,8.533,8.533s8.533-3.413,8.533-8.533V383
				C50.2,377.88,46.787,374.467,41.667,374.467z"/>
			<path d="M41.667,417.133c-5.12,0-8.533,3.413-8.533,8.533v8.533c0,5.12,3.413,8.533,8.533,8.533S50.2,439.32,50.2,434.2v-8.533
				C50.2,420.547,46.787,417.133,41.667,417.133z"/>
			<path d="M468.333,92.867c5.12,0,8.533-3.413,8.533-8.533V75.8c0-5.12-3.413-8.533-8.533-8.533S459.8,70.68,459.8,75.8v8.533
				C459.8,89.453,463.213,92.867,468.333,92.867z"/>
			<path d="M468.333,135.533c5.12,0,8.533-3.413,8.533-8.533v-8.533c0-5.12-3.413-8.533-8.533-8.533s-8.533,3.413-8.533,8.533V127
				C459.8,132.12,463.213,135.533,468.333,135.533z"/>
			<path d="M468.333,178.2c5.12,0,8.533-3.413,8.533-8.533v-8.533c0-5.12-3.413-8.533-8.533-8.533s-8.533,3.413-8.533,8.533v8.533
				C459.8,174.787,463.213,178.2,468.333,178.2z"/>
			<path d="M468.333,220.867c5.12,0,8.533-3.413,8.533-8.533V203.8c0-5.12-3.413-8.533-8.533-8.533s-8.533,3.413-8.533,8.533v8.533
				C459.8,217.453,463.213,220.867,468.333,220.867z"/>
			<path d="M468.333,263.533c5.12,0,8.533-3.413,8.533-8.533v-8.533c0-5.12-3.413-8.533-8.533-8.533s-8.533,3.413-8.533,8.533V255
				C459.8,260.12,463.213,263.533,468.333,263.533z"/>
			<path d="M468.333,306.2c5.12,0,8.533-3.413,8.533-8.533v-8.533c0-5.12-3.413-8.533-8.533-8.533s-8.533,3.413-8.533,8.533v8.533
				C459.8,302.787,463.213,306.2,468.333,306.2z"/>
			<path d="M468.333,348.867c5.12,0,8.533-3.413,8.533-8.533V331.8c0-5.12-3.413-8.533-8.533-8.533s-8.533,3.413-8.533,8.533v8.533
				C459.8,345.453,463.213,348.867,468.333,348.867z"/>
			<path d="M468.333,442.733c5.12,0,8.533-3.413,8.533-8.533v-8.533c0-5.12-3.413-8.533-8.533-8.533s-8.533,3.413-8.533,8.533v8.533
				C459.8,439.32,463.213,442.733,468.333,442.733z"/>
			<path d="M41.667,459.8H7.533c-5.12,0-8.533,3.413-8.533,8.533s3.413,8.533,8.533,8.533h25.6v25.6c0,5.12,3.413,8.533,8.533,8.533
				s8.533-3.413,8.533-8.533v-34.133C50.2,463.213,46.787,459.8,41.667,459.8z"/>
		</g>
	</g>
</g>
<g>
</g>
<g>
</g>
<g>
</g>
<g>
</g>
<g>
</g>
<g>
</g>
<g>
</g>
<g>
</g>
<g>
</g>
<g>
</g>
<g>
</g>
<g>
</g>
<g>
</g>
<g>
</g>
<g>
</g>
</svg>
