<svg height="512" viewBox="0 0 40 60" width="512" xmlns="http://www.w3.org/2000/svg">
    <g id="Page-1" fill="none" fill-rule="evenodd">
        <g id="003---Pressure-Gauge" fill="#5e5e5e" fill-rule="nonzero" transform="translate(-1 -1)">
            <path id="Shape"
                  d="m18 40.75v2.25h-12c-1.65685425 0-3 1.3431458-3 3s1.34314575 3 3 3h6.382l1.618 3.236v5.764c0 1.6568542 1.3431458 3 3 3h8c1.6568542 0 3-1.3431458 3-3v-5.764l1.618-3.236h6.382c1.6568542 0 3-1.3431458 3-3s-1.3431458-3-3-3h-12v-2.25c10.3438005-1.5693254 17.7302413-10.8454455 16.9433498-21.2779808-.7868916-10.43253528-9.4811803-18.49573913-19.9433498-18.49573913s-19.15645816 8.06320385-19.94334975 18.49573913c-.7868916 10.4325353 6.59954924 19.7086554 16.94334975 21.2779808zm8 17.25c0 .5522847-.4477153 1-1 1h-3v-3c0-.5522847-.4477153-1-1-1s-1 .4477153-1 1v3h-3c-.5522847 0-1-.4477153-1-1v-5h10zm.382-7h-10.764l-1-2h12.764zm10.618-5c0 .5522847-.4477153 1-1 1h-30c-.55228475 0-1-.4477153-1-1s.44771525-1 1-1h30c.5522847 0 1 .4477153 1 1zm-15-3h-2v-2.051c.333.017.662.051 1 .051s.667-.034 1-.051zm-1-40c9.9411255 0 18 8.0588745 18 18s-8.0588745 18-18 18-18-8.0588745-18-18c.01157214-9.9363282 8.0636718-17.98842786 18-18z"/>
            <path id="Shape"
                  d="m21 37c8.836556 0 16-7.163444 16-16s-7.163444-16-16-16-16 7.163444-16 16c.01046962 8.8322157 7.1677843 15.9895304 16 16zm0-30c7.7319865 0 14 6.2680135 14 14s-6.2680135 14-14 14-14-6.2680135-14-14c.00826732-7.7285595 6.2714405-13.99173268 14-14z"/>
            <path id="Shape"
                  d="m25.228 17.9c-.1568822-.214509-.3926977-.3577483-.655374-.3980878-.2626764-.0403396-.5306063.0255387-.744626.1830878l-1.149.842c-1.0455138-.7228523-2.4343042-.7035272-3.4593.0481364-1.0249958.7516635-1.4608672 2.0704238-1.0857 3.2848636l-2.719 1.994c-.2881347.2116799-.4414523.5609982-.4021995.9163701s.2651125.6628079.5925.8065c.3273875.143692.7065648.1018098.9946995-.1098701l2.72-1.994c.366319.2536997.7849648.4218415 1.225.492 1.0177246.1627669 2.0473498-.2115423 2.7229402-.9898957s.9013566-1.8503912.5970598-2.8351043l1.149-.842c.2137756-.1569999.3564224-.3924961.3965558-.654676s-.0255345-.5295641-.1825558-.743324zm-3.637 3.906c-.4393686.3219245-1.0555681.2330069-1.386-.2l-.006-.014-.012-.01c-.3152433-.4455537-.2149964-1.0615812.2252513-1.384193.4402478-.3226118 1.0578577-.2326269 1.3877487.202193l.006.014.011.009c.3166916.4446061.2183309 1.06103-.221 1.385z"/>
            <path id="Shape"
                  d="m9.641 24.813c.7734346 2.3143734 2.234452 4.3377499 4.188 5.8.0443794.0435552.0925721.0830464.144.118.4466349.3026814 1.0528536.1964825 1.37-.24l1.176-1.618c.325848-.4470745.2275745-1.073652-.2195-1.3995s-1.073652-.2275745-1.3995.2195l-.553.762c-1.0670519-.9523904-1.9172068-2.12276-2.493-3.432l.895-.291c.3534809-.0991943.6241836-.3841086.7051774-.7421984.0809937-.3580897-.0407467-.7317679-.3171324-.9734272s-.662969-.3124368-1.007045-.1843744l-.9.293c-.3086598-1.3981677-.3086598-2.8468323 0-4.245l.9.292c.2523508.0822431.5270452.0607921.76357-.0596273.2365248-.1204195.4154753-.3299281.49743-.5823727.1706208-.52522-.1168001-1.0893172-.642-1.26l-.9-.292c.5801516-1.3065385 1.4324688-2.474213 2.5-3.425l.549.756c.2100722.2890279.5583814.4440285.9137229.4066146.3553416-.0374139.6637307-.2615583.8090001-.588.1452694-.3264418.1053492-.7055867-.104723-.9946146l-.551-.759c1.2336086-.7273657 2.6102067-1.1787261 4.035-1.323v.949c0 .5522847.4477153 1 1 1s1-.4477153 1-1v-.949c1.423607.1440845 2.7991288.5947452 4.032 1.321l-.551.759c-.3247434.4470745-.2255745 1.0727565.2215 1.3975.4470745.3247434 1.0727566.2255745 1.3975-.2215l.549-.756c1.0675312.950787 1.9198484 2.1184615 2.5 3.425l-.9.292c-.4679032.152125-.7556293.6220087-.6784208 1.1079246.0772086.4859159.4964093.843474.9884208.8430754.1049173-.000217.2091627-.0167479.309-.049l.9-.292c.3086598 1.3981677.3086598 2.8468323 0 4.245l-.9-.293c-.344076-.1280624-.7306593-.0572849-1.007045.1843744s-.3981261.6153375-.3171324.9734272c.0809938.3580898.3516965.6430041.7051774.7421984l.9.291c-.5757932 1.30924-1.4259481 2.4796096-2.493 3.432l-.553-.762c-.3247434-.4467983-.9502016-.5457434-1.397-.221-.4467983.3247435-.5457434.9502016-.221 1.397l1.176 1.618c.3181624.4333107.9219702.5375525 1.367.236.0385611-.0265209.0753094-.0555855.11-.087 1.970643-1.4615774 3.4447868-3.4931939 4.223-5.82.0212252-.0346146.0399399-.0707072.056-.108.0071277-.0396744.0118032-.0797504.014-.12.7681236-2.3641451.7639207-4.9114025-.012-7.273 0-.008 0-.016 0-.023s-.013-.019-.017-.03c-.7822017-2.3614119-2.2766951-4.4225412-4.278-5.9-.024-.022-.037-.051-.064-.07s-.051-.02-.076-.035c-4.1652733-3.00948678-9.7907267-3.00948678-13.956 0-.025.015-.052.018-.076.035s-.04.048-.064.07c-2.0015407 1.4772249-3.4960939 3.5384366-4.278 5.9 0 .011-.013.018-.017.03s0 .015 0 .023c-.77643832 2.3619101-.78029125 4.9097524-.011 7.274.00180331.0399024.00614543.0796494.013.119.01351781.0364201.02887079.0721325.046.107z"/>
        </g>
    </g>
</svg>