<svg fill="#5e5e5e" version="1.1" id="Capa_1" xmlns="http://www.w3.org/2000/svg" xmlns:xlink="http://www.w3.org/1999/xlink" x="0px" y="0px"
	 viewBox="0 0 511.735 511.735" style="enable-background:new 0 0 511.735 511.735;" xml:space="preserve">
<g>
	<g>
		<path d="M95.96,319.835c-2.21,0-3.998,1.788-3.998,3.998v7.996c0,2.209,1.788,3.998,3.998,3.998s3.998-1.789,3.998-3.998v-7.996
			C99.958,321.623,98.17,319.835,95.96,319.835z"/>
	</g>
</g>
<g>
	<g>
		<path d="M103.956,311.839c-6.614,0-11.994,5.38-11.994,11.994c0,2.209,1.788,3.998,3.998,3.998s3.998-1.789,3.998-3.998
			c0-2.202,1.796-3.998,3.998-3.998c2.21,0,3.998-1.788,3.998-3.998C107.954,313.627,106.166,311.839,103.956,311.839z"/>
	</g>
</g>
<g>
	<g>
		<path d="M159.927,319.835c-2.21,0-3.998,1.788-3.998,3.998v7.996c0,2.209,1.788,3.998,3.998,3.998c2.21,0,3.998-1.789,3.998-3.998
			v-7.996C163.925,321.623,162.136,319.835,159.927,319.835z"/>
	</g>
</g>
<g>
	<g>
		<path d="M151.931,311.839c-2.21,0-3.998,1.788-3.998,3.998c0,2.21,1.788,3.998,3.998,3.998c2.202,0,3.998,1.796,3.998,3.998
			c0,2.209,1.788,3.998,3.998,3.998c2.21,0,3.998-1.789,3.998-3.998C163.925,317.219,158.545,311.839,151.931,311.839z"/>
	</g>
</g>
<g>
	<g>
		<path d="M151.931,311.839h-47.975c-2.21,0-3.998,1.788-3.998,3.998c0,2.21,1.789,3.998,3.998,3.998h47.975
			c2.21,0,3.998-1.788,3.998-3.998C155.929,313.627,154.141,311.839,151.931,311.839z"/>
	</g>
</g>
<g>
	<g>
		<path d="M351.827,319.835c-2.21,0-3.998,1.788-3.998,3.998v7.996c0,2.209,1.788,3.998,3.998,3.998c2.21,0,3.997-1.789,3.997-3.998
			v-7.996C355.824,321.623,354.037,319.835,351.827,319.835z"/>
	</g>
</g>
<g>
	<g>
		<path d="M359.822,311.839c-6.613,0-11.993,5.38-11.993,11.994c0,2.209,1.788,3.998,3.998,3.998c2.21,0,3.997-1.789,3.997-3.998
			c0-2.202,1.797-3.998,3.998-3.998c2.21,0,3.998-1.788,3.998-3.998C363.82,313.627,362.032,311.839,359.822,311.839z"/>
	</g>
</g>
<g>
	<g>
		<path d="M415.793,319.835c-2.209,0-3.997,1.788-3.997,3.998v7.996c0,2.209,1.788,3.998,3.997,3.998
			c2.211,0,3.998-1.789,3.998-3.998v-7.996C419.791,321.623,418.004,319.835,415.793,319.835z"/>
	</g>
</g>
<g>
	<g>
		<path d="M407.798,311.839c-2.21,0-3.998,1.788-3.998,3.998c0,2.21,1.788,3.998,3.998,3.998c2.202,0,3.998,1.796,3.998,3.998
			c0,2.209,1.788,3.998,3.997,3.998c2.211,0,3.998-1.789,3.998-3.998C419.791,317.219,414.411,311.839,407.798,311.839z"/>
	</g>
</g>
<g>
	<g>
		<path d="M407.798,311.839h-47.976c-2.209,0-3.998,1.788-3.998,3.998c0,2.21,1.789,3.998,3.998,3.998h47.976
			c2.21,0,3.998-1.788,3.998-3.998C411.796,313.627,410.008,311.839,407.798,311.839z"/>
	</g>
</g>
<g>
	<g>
		<path d="M103.956,495.743c-2.21,0-3.998,1.788-3.998,3.998v7.996c0,2.21,1.789,3.998,3.998,3.998c2.21,0,3.998-1.788,3.998-3.998
			v-7.996C107.954,497.531,106.166,495.743,103.956,495.743z"/>
	</g>
</g>
<g>
	<g>
		<path d="M151.931,503.739h-47.975c-2.21,0-3.998,1.788-3.998,3.998c0,2.21,1.789,3.998,3.998,3.998h47.975
			c2.21,0,3.998-1.788,3.998-3.998C155.929,505.527,154.141,503.739,151.931,503.739z"/>
	</g>
</g>
<g>
	<g>
		<path d="M151.931,495.743c-2.21,0-3.998,1.788-3.998,3.998v7.996c0,2.21,1.788,3.998,3.998,3.998s3.998-1.788,3.998-3.998v-7.996
			C155.929,497.531,154.141,495.743,151.931,495.743z"/>
	</g>
</g>
<g>
	<g>
		<path d="M359.822,495.743c-2.209,0-3.998,1.788-3.998,3.998v7.996c0,2.21,1.789,3.998,3.998,3.998c2.21,0,3.998-1.788,3.998-3.998
			v-7.996C363.82,497.531,362.032,495.743,359.822,495.743z"/>
	</g>
</g>
<g>
	<g>
		<path d="M407.798,503.739h-47.976c-2.209,0-3.998,1.788-3.998,3.998c0,2.21,1.789,3.998,3.998,3.998h47.976
			c2.21,0,3.998-1.788,3.998-3.998C411.796,505.527,410.008,503.739,407.798,503.739z"/>
	</g>
</g>
<g>
	<g>
		<path d="M407.798,495.743c-2.21,0-3.998,1.788-3.998,3.998v7.996c0,2.21,1.788,3.998,3.998,3.998s3.998-1.788,3.998-3.998v-7.996
			C411.796,497.531,410.008,495.743,407.798,495.743z"/>
	</g>
</g>
<g>
	<g>
		<path d="M231.89,135.931c-2.209,0-3.998,1.788-3.998,3.998v151.92c0,2.21,1.789,3.998,3.998,3.998s3.997-1.788,3.998-3.997
			V139.929C235.888,137.719,234.099,135.931,231.89,135.931z"/>
	</g>
</g>
<g>
	<g>
		<path d="M279.864,135.931c-2.21,0-3.998,1.788-3.998,3.998v151.92c0,2.21,1.788,3.998,3.998,3.998c2.21,0,3.998-1.788,3.998-3.997
			V139.929C283.862,137.719,282.074,135.931,279.864,135.931z"/>
	</g>
</g>
<g>
	<g>
		<path d="M255.877,0c-37.473,0-67.965,30.488-67.965,67.965s30.492,67.965,67.965,67.965c37.472,0,67.964-30.488,67.964-67.965
			S293.349,0,255.877,0z M255.877,127.935c-33.07,0-59.969-26.9-59.969-59.969c0-33.069,26.9-59.969,59.969-59.969
			c33.068,0,59.968,26.9,59.968,59.969C315.845,101.035,288.945,127.935,255.877,127.935z"/>
	</g>
</g>
<g>
	<g>
		<path d="M319.844,295.848H191.911c-2.21,0-3.998,1.788-3.998,3.997c0,2.21,1.788,3.998,3.998,3.998h127.933
			c2.209,0,3.998-1.788,3.998-3.998C323.842,297.636,322.053,295.848,319.844,295.848z"/>
	</g>
</g>
<g>
	<g>
		<path d="M183.914,303.843c-2.21,0-3.998,1.789-3.998,3.998v63.967c0,2.21,1.788,3.998,3.998,3.998c2.21,0,3.998-1.789,3.998-3.998
			v-63.967C187.912,305.632,186.124,303.843,183.914,303.843z"/>
	</g>
</g>
<g>
	<g>
		<path d="M319.844,375.806H191.911c-2.21,0-3.998,1.788-3.998,3.998c0,2.21,1.788,3.998,3.998,3.998h127.933
			c2.209,0,3.998-1.788,3.998-3.998C323.842,377.594,322.053,375.806,319.844,375.806z"/>
	</g>
</g>
<g>
	<g>
		<path d="M327.84,303.843c-2.211,0-3.998,1.789-3.998,3.998v63.967c0,2.21,1.787,3.998,3.998,3.998
			c2.209,0,3.997-1.789,3.997-3.998v-63.967C331.837,305.632,330.049,303.843,327.84,303.843z"/>
	</g>
</g>
<g>
	<g>
		<path d="M191.91,295.848c-6.614,0-11.994,5.38-11.994,11.993c0,2.21,1.788,3.998,3.998,3.998c2.21,0,3.998-1.788,3.998-3.998
			c0-2.201,1.796-3.998,3.998-3.998c2.209,0,3.998-1.788,3.998-3.998C195.908,297.636,194.119,295.848,191.91,295.848z"/>
	</g>
</g>
<g>
	<g>
		<path d="M319.844,295.848c-2.21,0-3.998,1.788-3.998,3.997c0,2.21,1.788,3.998,3.998,3.998c2.201,0,3.998,1.797,3.998,3.998
			c0,2.21,1.787,3.998,3.998,3.998c2.209,0,3.997-1.788,3.997-3.998C331.837,301.228,326.457,295.848,319.844,295.848z"/>
	</g>
</g>
<g>
	<g>
		<path d="M191.911,375.806c-2.202,0-3.998-1.796-3.998-3.998c0-2.209-1.788-3.998-3.998-3.998s-3.998,1.789-3.998,3.998
			c0,6.614,5.38,11.994,11.994,11.994c2.209,0,3.998-1.788,3.998-3.998C195.909,377.594,194.12,375.806,191.911,375.806z"/>
	</g>
</g>
<g>
	<g>
		<path d="M327.84,367.81c-2.211,0-3.998,1.789-3.998,3.998c0,2.202-1.797,3.998-3.998,3.998c-2.21,0-3.998,1.788-3.998,3.998
			c0,2.21,1.788,3.998,3.998,3.998c6.613,0,11.993-5.38,11.993-11.994C331.837,369.599,330.049,367.81,327.84,367.81z"/>
	</g>
</g>
<g>
	<g>
		<path d="M257.141,15.993c-28.657,0-51.972,23.316-51.972,51.973c0,2.21,1.789,3.998,3.998,3.998c2.21,0,3.998-1.788,3.997-3.998
			c0-24.249,19.732-43.977,43.977-43.977c2.21,0,3.998-1.788,3.998-3.998C261.139,17.781,259.351,15.993,257.141,15.993z"/>
	</g>
</g>
<g>
	<g>
		<path d="M442.918,344.15c-4.81-5.372-11.604-8.323-19.131-8.323h-87.954c-2.21,0-3.998,1.787-3.998,3.997
			c0,2.21,1.788,3.998,3.998,3.998h87.954c5.225,0,9.902,2.015,13.173,5.669c3.281,3.655,4.764,8.528,4.186,13.759l-10.697,104.211
			c-1.217,10.995-11.588,20.286-22.652,20.286H103.955c-11.064,0-21.441-9.291-22.667-20.255L70.59,363.219
			c-0.577-5.193,0.915-10.066,4.186-13.728c3.271-3.654,7.957-5.669,13.188-5.669h87.953c2.21,0,3.998-1.788,3.998-3.998
			s-1.788-3.997-3.998-3.997H87.963c-7.535,0-14.335,2.959-19.146,8.339c-4.809,5.372-7.004,12.446-6.176,19.911l10.698,104.274
			c1.687,15.102,15.414,27.392,30.617,27.392h303.842c15.203,0,28.93-12.29,30.599-27.423l10.698-104.212
			C449.922,356.612,447.729,349.522,442.918,344.15z"/>
	</g>
</g>
<g>
	<g>
		<path d="M407.798,423.78H103.956c-2.21,0-3.998,1.789-3.998,3.998c0,2.21,1.789,3.998,3.998,3.998h303.842
			c2.21,0,3.998-1.788,3.998-3.998C411.796,425.569,410.008,423.78,407.798,423.78z"/>
	</g>
</g>
<g>
	<g>
		<path d="M191.911,471.756c-2.21,0-3.998,1.788-3.998,3.998v7.996c0,2.21,1.788,3.997,3.998,3.997c2.209,0,3.998-1.787,3.998-3.997
			v-7.996C195.909,473.544,194.12,471.756,191.911,471.756z"/>
	</g>
</g>
<g>
	<g>
		<path d="M319.844,471.756H191.911c-2.21,0-3.998,1.788-3.998,3.998c0,2.21,1.788,3.998,3.998,3.998h127.933
			c2.209,0,3.998-1.788,3.998-3.998C323.842,473.544,322.053,471.756,319.844,471.756z"/>
	</g>
</g>
<g>
	<g>
		<path d="M319.844,471.756c-2.21,0-3.998,1.788-3.998,3.998v7.996c0,2.21,1.788,3.997,3.998,3.997c2.209,0,3.998-1.787,3.998-3.997
			v-7.996C323.842,473.544,322.053,471.756,319.844,471.756z"/>
	</g>
</g>
<g>
	<g>
		<path d="M207.902,471.756c-2.209,0-3.998,1.788-3.998,3.998v7.996c0,2.21,1.789,3.997,3.998,3.997c2.21,0,3.998-1.787,3.998-3.997
			v-7.996C211.9,473.544,210.112,471.756,207.902,471.756z"/>
	</g>
</g>
<g>
	<g>
		<path d="M223.894,471.756c-2.21,0-3.998,1.788-3.998,3.998v7.996c0,2.21,1.788,3.997,3.998,3.997c2.209,0,3.997-1.787,3.998-3.997
			v-7.996C227.892,473.544,226.103,471.756,223.894,471.756z"/>
	</g>
</g>
<g>
	<g>
		<path d="M239.885,471.756c-2.209,0-3.998,1.788-3.998,3.998v7.996c0,2.21,1.789,3.997,3.998,3.997c2.21,0,3.998-1.787,3.998-3.997
			v-7.996C243.883,473.544,242.095,471.756,239.885,471.756z"/>
	</g>
</g>
<g>
	<g>
		<path d="M255.877,471.756c-2.21,0-3.998,1.788-3.998,3.998v7.996c0,2.21,1.788,3.997,3.998,3.997c2.209,0,3.998-1.787,3.998-3.997
			v-7.996C259.875,473.544,258.085,471.756,255.877,471.756z"/>
	</g>
</g>
<g>
	<g>
		<path d="M271.868,471.756c-2.21,0-3.998,1.788-3.998,3.998v7.996c0,2.21,1.788,3.997,3.998,3.997s3.998-1.787,3.998-3.997v-7.996
			C275.866,473.544,274.078,471.756,271.868,471.756z"/>
	</g>
</g>
<g>
	<g>
		<path d="M287.86,471.756c-2.21,0-3.998,1.788-3.998,3.998v7.996c0,2.21,1.788,3.997,3.998,3.997c2.21,0,3.997-1.787,3.997-3.997
			v-7.996C291.857,473.544,290.07,471.756,287.86,471.756z"/>
	</g>
</g>
<g>
	<g>
		<path d="M303.851,471.756c-2.21,0-3.998,1.788-3.998,3.998v7.996c0,2.21,1.788,3.997,3.998,3.997c2.21,0,3.998-1.787,3.998-3.997
			v-7.996C307.849,473.544,306.061,471.756,303.851,471.756z"/>
	</g>
</g>
<g>
	<g>
		<path d="M111.952,319.835c-2.21,0-3.998,1.788-3.998,3.998v7.996c0,2.209,1.789,3.998,3.998,3.998s3.998-1.789,3.998-3.998v-7.996
			C115.95,321.623,114.162,319.835,111.952,319.835z"/>
	</g>
</g>
<g>
	<g>
		<path d="M367.818,319.835c-2.21,0-3.998,1.788-3.998,3.998v7.996c0,2.209,1.788,3.998,3.998,3.998c2.21,0,3.998-1.789,3.998-3.998
			v-7.996C371.816,321.623,370.028,319.835,367.818,319.835z"/>
	</g>
</g>
<g>
</g>
<g>
</g>
<g>
</g>
<g>
</g>
<g>
</g>
<g>
</g>
<g>
</g>
<g>
</g>
<g>
</g>
<g>
</g>
<g>
</g>
<g>
</g>
<g>
</g>
<g>
</g>
<g>
</g>
</svg>
