<svg height="512" viewBox="0 0 60 44" width="512" xmlns="http://www.w3.org/2000/svg">
    <g id="Page-1" fill="none" fill-rule="evenodd">
        <g id="025---Boating-License" fill="#5e5e5e" fill-rule="nonzero">
            <path id="Shape"
                  d="m57 0h-54c-1.65685425 0-3 1.34314575-3 3v38c0 1.6568542 1.34314575 3 3 3h54c1.6568542 0 3-1.3431458 3-3v-38c0-1.65685425-1.3431458-3-3-3zm-54 2h54c.5522847 0 1 .44771525 1 1v4h-56v-4c0-.55228475.44771525-1 1-1zm54 40h-54c-.55228475 0-1-.4477153-1-1v-32h56v32c0 .5522847-.4477153 1-1 1z"/>
            <path id="Shape"
                  d="m20 11h-14c-1.1045695 0-2 .8954305-2 2v15c0 1.1045695.8954305 2 2 2h14c1.1045695 0 2-.8954305 2-2v-15c0-1.1045695-.8954305-2-2-2zm-10 17v-2c0-1.6568542 1.3431458-3 3-3s3 1.3431458 3 3v2zm1-9c0-1.1045695.8954305-2 2-2s2 .8954305 2 2-.8954305 2-2 2-2-.8954305-2-2zm7 9v-2c-.000727-1.6626784-.8279124-3.2162279-2.207-4.145 1.1646341-1.1359939 1.5252003-2.8641988.9119739-4.3711189s-2.0780582-2.4922971-3.7049739-2.4922971-3.09174755.985377-3.70497395 2.4922971c-.61322639 1.5069201-.25266017 3.235125.91197395 4.3711189-1.37908756.9287721-2.206273 2.4823216-2.207 4.145v2h-2v-15h14v15z"/>
            <path id="Shape"
                  d="m54.883 31.007-1.069.126-.547-2.187c.429644-.1140502.7298464-.5014874.733-.946 0-.5522847-.4477153-1-1-1h-10c-.5522847 0-1 .4477153-1 1 .0040955.4784573.3511056.8849187.823.964l-.595 3.536-4.345.511c-.5131145.0753163-.8835019.5304028-.8530479 1.0481205.0304539.5177176.4516419.9262409.9700479.9408795v3c0 1.1045695.8954305 2 2 2h9c3.3123376-.0033074 5.9966926-2.6876624 6-6v-.993l.117-.014c.5411179-.0726556.9239422-.5658982.8600549-1.1081213-.0638873-.542223-.5508688-.932981-1.0940549-.8778787zm-3.663-2.007.592 2.368-2.812.332v-2.7zm-6.374 0h2.154v2.934l-2.7.318zm8.154 5c0 2.209139-1.790861 4-4 4h-9v-3.228l13-1.53z"/>
            <path id="Shape"
                  d="m21 38h-8.537c.3527836-.6074196.5380879-1.2975659.537-2v-1c0-1.6568542-1.3431458-3-3-3-1.65685425 0-3 1.3431458-3 3v1c-.00108789.7024341.1842164 1.3925804.537 2h-1.537c-.55228475 0-1 .4477153-1 1s.44771525 1 1 1h3c.3372967.0000766.67326478-.0422554 1-.126.3267352.0837446.6627033.1260766 1 .126h10c.5522847 0 1-.4477153 1-1s-.4477153-1-1-1zm-10-2c-.0003753.7141557-.3815228 1.3739222-1 1.731-.61847715-.3570778-.99962472-1.0168443-1-1.731v-1c0-.5522847.44771525-1 1-1 .5522847 0 1 .4477153 1 1z"/>
            <path id="Shape"
                  d="m26 17h26c1.1045695 0 2-.8954305 2-2v-2c0-1.1045695-.8954305-2-2-2h-26c-1.1045695 0-2 .8954305-2 2v2c0 1.1045695.8954305 2 2 2zm0-4h26v2h-26z"/>
            <path id="Shape"
                  d="m25 21h27c.5522847 0 1-.4477153 1-1s-.4477153-1-1-1h-27c-.5522847 0-1 .4477153-1 1s.4477153 1 1 1z"/>
            <path id="Shape"
                  d="m25 25h27c.5522847 0 1-.4477153 1-1s-.4477153-1-1-1h-27c-.5522847 0-1 .4477153-1 1s.4477153 1 1 1z"/>
            <path id="Shape"
                  d="m36 27h-11c-.5522847 0-1 .4477153-1 1s.4477153 1 1 1h11c.5522847 0 1-.4477153 1-1s-.4477153-1-1-1z"/>
        </g>
    </g>
</svg>