<svg fill="#5e5e5e" version="1.1" id="Capa_1" xmlns="http://www.w3.org/2000/svg" xmlns:xlink="http://www.w3.org/1999/xlink" x="0px" y="0px"
	 viewBox="0 0 511.734 511.734" style="enable-background:new 0 0 511.734 511.734;" xml:space="preserve">
<g>
	<g>
		<path d="M447.767,0H87.954c-2.21,0-3.998,1.788-3.998,3.998v471.755c0,2.21,1.788,3.998,3.998,3.998h359.813
			c2.209,0,3.998-1.788,3.998-3.998V3.998C451.765,1.788,449.976,0,447.767,0z M443.769,471.755H91.952V7.996h351.817V471.755z"/>
	</g>
</g>
<g>
	<g>
		<path d="M439.771,487.746H95.95c-2.21,0-3.998,1.789-3.998,3.998c0,2.21,1.788,3.998,3.998,3.998h343.821
			c2.21,0,3.998-1.788,3.998-3.998C443.769,489.535,441.981,487.746,439.771,487.746z"/>
	</g>
</g>
<g>
	<g>
		<path d="M431.776,503.738H63.967c-2.21,0-3.998,1.788-3.998,3.998c0,2.21,1.788,3.998,3.998,3.998h367.808
			c2.21,0,3.999-1.788,3.999-3.998C435.774,505.526,433.986,503.738,431.776,503.738z"/>
	</g>
</g>
<g>
	<g>
		<path d="M63.967,31.983c-2.21,0-3.998,1.788-3.998,3.998v471.755c0,2.21,1.788,3.998,3.998,3.998c2.21,0,3.998-1.788,3.998-3.998
			V35.981C67.965,33.771,66.177,31.983,63.967,31.983z"/>
	</g>
</g>
<g>
	<g>
		<path d="M90.353,472.55c-1.749-1.311-4.264-0.967-5.599,0.805l-23.988,31.983c-1.32,1.765-0.961,4.272,0.804,5.599
			c0.718,0.531,1.561,0.797,2.397,0.797c1.21,0,2.412-0.547,3.202-1.602l23.988-31.982C92.477,476.384,92.118,473.878,90.353,472.55
			z"/>
	</g>
</g>
<g>
	<g>
		<path d="M90.352,0.8c-1.749-1.316-4.264-0.969-5.599,0.8L60.766,33.583c-1.32,1.765-0.961,4.272,0.804,5.595
			c0.718,0.539,1.561,0.801,2.397,0.801c1.21,0,2.412-0.55,3.201-1.6L91.156,6.395C92.476,4.63,92.117,2.123,90.352,0.8z"/>
	</g>
</g>
<g>
	<g>
		<path d="M111.941,15.992c-2.21,0-3.998,1.789-3.998,3.998v431.775c0,2.209,1.789,3.998,3.998,3.998
			c2.21,0,3.998-1.789,3.998-3.997V19.99C115.939,17.78,114.151,15.992,111.941,15.992z"/>
	</g>
</g>
<g>
	<g>
		<path d="M419.781,67.967c0-1.062-0.421-2.081-1.171-2.831l-3.42-3.409l1.851-4.458c0.406-0.981,0.406-2.082,0-3.062
			c-0.406-0.98-1.187-1.757-2.163-2.163l-4.458-1.851l0.008-4.833c0-1.062-0.422-2.081-1.172-2.831
			c-0.75-0.753-1.764-1.175-2.826-1.175h-4.842l-1.851-4.466c-0.851-2.042-3.209-2.995-5.224-2.163l-4.467,1.851l-3.42-3.42
			c-1.561-1.562-4.091-1.558-5.653-0.004l-3.42,3.42l-4.467-1.847c-2.031-0.851-4.38,0.125-5.224,2.163l-1.851,4.466h-4.825
			c-2.21,0-3.998,1.788-3.998,3.998v4.826l-4.467,1.851c-2.038,0.847-3.006,3.186-2.163,5.224l1.851,4.466l-3.42,3.42
			c-0.75,0.75-1.171,1.769-1.171,2.831c0,1.062,0.421,2.077,1.171,2.827l3.412,3.401l-1.858,4.458c-0.405,0.98-0.405,2.085,0,3.065
			c0.406,0.984,1.187,1.761,2.163,2.167l4.475,1.851l-0.008,4.833c0,1.062,0.422,2.081,1.171,2.834
			c0.75,0.749,1.765,1.171,2.827,1.171c0,0,0,0,0.008,0l4.833-0.004l1.851,4.47c0.406,0.98,1.187,1.757,2.163,2.163
			c0.984,0.406,2.078,0.406,3.061,0l4.467-1.851l3.42,3.42c0.781,0.78,1.804,1.171,2.827,1.171c1.022,0,2.045-0.391,2.825-1.168
			l3.42-3.42l4.451,1.851c0.969,0.406,2.078,0.414,3.061,0c0.976-0.406,1.757-1.183,2.163-2.163l1.851-4.466h4.842
			c2.209,0,3.998-1.788,3.998-3.998v-4.83l4.466-1.847c0.975-0.402,1.757-1.184,2.163-2.163c0.406-0.981,0.406-2.082,0-3.062
			l-1.851-4.466l3.42-3.42C419.36,70.044,419.781,69.025,419.781,67.967z M407.646,70.449c-1.139,1.143-1.483,2.861-0.866,4.356
			l1.343,3.237l-3.241,1.339c-1.491,0.616-2.467,2.077-2.467,3.693v3.506h-3.514c-1.617,0-3.077,0.972-3.693,2.468l-1.344,3.236
			l-3.225-1.339c-1.483-0.61-3.216-0.274-4.357,0.866l-2.482,2.483l-2.483-2.483c-0.765-0.765-1.788-1.171-2.827-1.171
			c-0.515,0-1.038,0.098-1.529,0.304l-3.24,1.343l-1.343-3.248c-0.617-1.492-2.077-2.468-3.693-2.468c0,0,0,0-0.008,0l-3.498,0.004
			l0.008-3.502c0-1.62-0.977-3.084-2.468-3.701l-3.249-1.343l1.352-3.233c0.625-1.499,0.281-3.224-0.867-4.368l-2.475-2.468
			l2.475-2.479c1.14-1.143,1.484-2.861,0.867-4.356l-1.344-3.241l3.241-1.343c1.491-0.62,2.468-2.077,2.468-3.693V49.35h3.498
			c1.616,0,3.076-0.972,3.693-2.468l1.343-3.244l3.24,1.339c1.514,0.625,3.21,0.282,4.357-0.862l2.483-2.479l2.482,2.483
			c1.148,1.151,2.881,1.499,4.357,0.866l3.24-1.343l1.344,3.24c0.616,1.496,2.076,2.468,3.693,2.468h3.506l-0.008,3.506
			c0,1.62,0.968,3.08,2.467,3.701l3.241,1.343l-1.343,3.233c-0.617,1.496-0.274,3.217,0.866,4.361l2.483,2.476L407.646,70.449z"/>
	</g>
</g>
<g>
	<g>
		<path d="M395.794,63.967h-23.987c-2.21,0-3.998,1.788-3.998,3.998c0,2.21,1.788,3.998,3.998,3.998h23.987
			c2.21,0,3.998-1.788,3.998-3.998C399.792,65.755,398.004,63.967,395.794,63.967z"/>
	</g>
</g>
<g>
	<g>
		<path d="M176.096,32.187c-19.84,0-35.981,16.14-35.981,35.981c0,19.84,16.14,35.981,35.981,35.981
			c19.833,0,35.965-16.14,35.966-35.981C212.062,48.327,195.929,32.187,176.096,32.187z M176.096,96.152
			c-15.429,0-27.985-12.556-27.985-27.985s12.556-27.985,27.985-27.985c15.421,0,27.97,12.556,27.97,27.985
			S191.518,96.152,176.096,96.152z"/>
	</g>
</g>
<g>
	<g>
		<path d="M187.902,63.967h-23.987c-2.21,0-3.998,1.788-3.998,3.998c0,2.21,1.788,3.998,3.998,3.998h23.987
			c2.21,0,3.998-1.788,3.998-3.998C191.9,65.755,190.112,63.967,187.902,63.967z"/>
	</g>
</g>
<g>
	<g>
		<path d="M335.825,167.913H223.884c-2.21,0-3.998,1.788-3.998,3.998s1.788,3.998,3.998,3.998h111.941
			c2.21,0,3.998-1.789,3.998-3.998C339.823,169.701,338.035,167.913,335.825,167.913z"/>
	</g>
</g>
<g>
	<g>
		<path d="M296.642,263.863H263.05c-2.21,0-3.998,1.788-3.998,3.998c0,2.209,1.788,3.998,3.998,3.998h33.592
			c2.21,0,3.998-1.789,3.998-3.998C300.64,265.651,298.852,263.863,296.642,263.863z"/>
	</g>
</g>
<g>
	<g>
		<path d="M265.908,265.064c-1.546-1.569-4.076-1.608-5.653-0.062c-9.768,9.574-22.683,14.852-36.371,14.852
			c-28.657,0-51.973-23.316-51.973-51.973c0-28.657,23.316-51.973,51.973-51.973c2.21,0,3.998-1.789,3.998-3.998
			c0-2.21-1.789-3.998-3.998-3.998c-33.07,0-59.969,26.9-59.969,59.969c0,33.069,26.9,59.969,59.969,59.969
			c15.795,0,30.694-6.09,41.962-17.133C267.424,269.171,267.455,266.641,265.908,265.064z"/>
	</g>
</g>
<g>
	<g>
		<path d="M335.825,167.913c-2.21,0-3.998,1.788-3.998,3.998c0,2.21,1.788,3.998,3.998,3.998c28.658,0,51.974,23.315,51.974,51.973
			c0,28.658-23.317,51.973-51.974,51.973c-13.681,0-26.604-5.279-36.388-14.852c-1.569-1.542-4.114-1.511-5.652,0.062
			c-1.547,1.577-1.516,4.107,0.062,5.653c11.284,11.049,26.19,17.132,41.978,17.132c33.069,0,59.969-26.9,59.969-59.968
			C395.794,194.813,368.894,167.913,335.825,167.913z"/>
	</g>
</g>
<g>
	<g>
		<path d="M223.884,199.897c-15.429,0-27.985,12.556-27.985,27.985c0,15.429,12.555,27.985,27.985,27.985
			c15.429,0,27.985-12.556,27.985-27.985C251.869,212.453,239.313,199.897,223.884,199.897z M223.884,247.871
			c-11.026,0-19.99-8.967-19.99-19.989c0-11.022,8.964-19.99,19.99-19.99c11.025,0,19.989,8.969,19.989,19.99
			S234.909,247.871,223.884,247.871z"/>
	</g>
</g>
<g>
	<g>
		<path d="M223.884,215.887c-2.21,0-3.998,1.788-3.998,3.998v15.992c0,2.21,1.788,3.998,3.998,3.998
			c2.209,0,3.997-1.788,3.998-3.998v-15.992C227.882,217.675,226.093,215.887,223.884,215.887z"/>
	</g>
</g>
<g>
	<g>
		<path d="M231.879,223.884h-16.398c-2.209,0-3.998,1.788-3.998,3.998c0,2.21,1.789,3.998,3.998,3.998h16.398
			c2.21,0,3.998-1.788,3.998-3.998C235.877,225.672,234.088,223.884,231.879,223.884z"/>
	</g>
</g>
<g>
	<g>
		<path d="M328.22,213.253c-1.522-6.321-7.995-10.405-14.453-8.875c-3.124,0.746-5.762,2.663-7.441,5.392
			c-1.671,2.729-2.187,5.946-1.437,9.066c1.296,5.419,6.089,9.206,11.65,9.206c0.944,0,1.889-0.113,2.803-0.332
			c3.116-0.742,5.755-2.655,7.434-5.384C328.454,219.593,328.97,216.372,328.22,213.253z M319.966,218.137
			c-0.562,0.91-1.445,1.546-2.483,1.796c-2.139,0.516-4.31-0.843-4.817-2.963c-0.25-1.04-0.078-2.113,0.476-3.019
			c0.554-0.909,1.436-1.546,2.483-1.796c0.305-0.074,0.618-0.109,0.93-0.109c1.857,0,3.458,1.261,3.887,3.073
			C320.692,216.158,320.52,217.231,319.966,218.137z"/>
	</g>
</g>
<g>
	<g>
		<path d="M359.329,205.819c-1.522-6.333-8.113-10.394-14.454-8.875c-3.123,0.746-5.761,2.663-7.441,5.392
			c-1.671,2.729-2.186,5.949-1.437,9.05c1.28,5.431,6.067,9.222,11.65,9.222c0.937,0,1.882-0.113,2.803-0.331
			C356.869,218.735,360.851,212.257,359.329,205.819z M348.591,212.498c-2.162,0.516-4.317-0.839-4.817-2.963
			c-0.25-1.039-0.078-2.112,0.477-3.018c0.553-0.909,1.436-1.546,2.482-1.796c0.313-0.074,0.626-0.113,0.938-0.113
			c1.85,0,3.443,1.265,3.88,3.064C352.058,209.82,350.731,211.986,348.591,212.498z"/>
	</g>
</g>
<g>
	<g>
		<path d="M335.653,244.361c-1.515-6.336-8.151-10.354-14.453-8.874c-6.442,1.546-10.417,8.031-8.878,14.457
			c1.296,5.419,6.089,9.206,11.65,9.206c0.945,0,1.889-0.113,2.803-0.332C333.216,257.272,337.191,250.788,335.653,244.361z
			 M324.917,251.04c-2.139,0.519-4.31-0.843-4.817-2.963c-0.516-2.139,0.812-4.298,2.959-4.813c0.312-0.074,0.633-0.113,0.945-0.113
			c1.842,0,3.443,1.265,3.873,3.075C328.392,248.366,327.064,250.525,324.917,251.04z"/>
	</g>
</g>
<g>
	<g>
		<path d="M366.761,236.928c-1.514-6.34-8.191-10.366-14.446-8.874c-3.123,0.737-5.761,2.65-7.441,5.376
			c-1.678,2.729-2.193,5.954-1.444,9.081c1.304,5.419,6.099,9.202,11.666,9.202c0.929,0,1.867-0.11,2.787-0.328
			c3.116-0.749,5.754-2.662,7.434-5.388C366.994,243.265,367.51,240.044,366.761,236.928z M358.508,241.807
			c-0.562,0.91-1.444,1.55-2.483,1.8c-2.107,0.531-4.317-0.843-4.817-2.963c-0.25-1.042-0.078-2.12,0.477-3.025
			c0.553-0.906,1.436-1.538,2.483-1.788c0.311-0.074,0.632-0.113,0.944-0.113c1.843,0,3.443,1.264,3.873,3.075
			C359.235,239.828,359.063,240.901,358.508,241.807z"/>
	</g>
</g>
<g>
	<g>
		<path d="M349.692,199.904c-0.507-2.144-2.671-3.471-4.818-2.96l-31.108,7.434c-2.148,0.511-3.475,2.671-2.96,4.818
			c0.438,1.835,2.077,3.068,3.889,3.068c0.305,0,0.617-0.035,0.929-0.109l31.108-7.434
			C348.88,204.21,350.208,202.051,349.692,199.904z"/>
	</g>
</g>
<g>
	<g>
		<path d="M353.409,215.457c-0.507-2.143-2.671-3.479-4.818-2.959l-31.108,7.434c-2.148,0.512-3.475,2.671-2.96,4.818
			c0.438,1.835,2.078,3.069,3.889,3.069c0.305,0,0.617-0.035,0.929-0.11l31.108-7.434
			C352.597,219.763,353.925,217.604,353.409,215.457z"/>
	</g>
</g>
<g>
	<g>
		<path d="M357.126,231.012c-0.507-2.144-2.671-3.49-4.818-2.959l-31.108,7.434c-2.148,0.511-3.475,2.67-2.96,4.817
			c0.438,1.835,2.078,3.069,3.889,3.069c0.304,0,0.617-0.034,0.929-0.109l31.109-7.434
			C356.314,235.319,357.642,233.159,357.126,231.012z"/>
	</g>
</g>
<g>
	<g>
		<path d="M360.843,246.567c-0.507-2.143-2.671-3.47-4.818-2.959l-31.108,7.434c-2.148,0.511-3.475,2.671-2.96,4.818
			c0.438,1.835,2.078,3.068,3.889,3.068c0.304,0,0.617-0.036,0.929-0.11l31.109-7.434
			C360.031,250.873,361.359,248.714,360.843,246.567z"/>
	</g>
</g>
<g>
	<g>
		<path d="M271.858,239.875h-7.995c-2.21,0-3.998,1.789-3.998,3.998c0,2.21,1.788,3.998,3.998,3.998h7.995
			c2.21,0,3.998-1.788,3.998-3.998S274.068,239.875,271.858,239.875z"/>
	</g>
</g>
<g>
	<g>
		<path d="M295.846,239.875h-7.995c-2.21,0-3.998,1.789-3.998,3.998c0,2.21,1.788,3.998,3.998,3.998h7.995
			c2.209,0,3.998-1.788,3.998-3.998S298.056,239.875,295.846,239.875z"/>
	</g>
</g>
<g>
	<g>
		<path d="M295.845,135.93c-11.025,0-19.989,8.968-19.989,19.989c0,2.21,1.788,3.998,3.998,3.998c2.21,0,3.998-1.788,3.998-3.997
			c0-6.614,5.38-11.994,11.993-11.994c2.21,0,3.998-1.789,3.998-3.998C299.843,137.718,298.055,135.93,295.845,135.93z"/>
	</g>
</g>
<g>
	<g>
		<path d="M303.842,103.945c-2.21,0-3.998,1.788-3.998,3.998s1.788,3.998,3.998,3.998c6.614,0,11.994,5.381,11.994,11.994
			c0,6.614-5.38,11.994-11.994,11.994c-2.21,0-3.998,1.788-3.998,3.998s1.788,3.998,3.998,3.998c11.025,0,19.99-8.97,19.99-19.991
			S314.867,103.945,303.842,103.945z"/>
	</g>
</g>
<g>
	<g>
		<path d="M279.854,55.97c-2.21,0-3.998,1.789-3.998,3.998c0,6.614-5.38,11.994-11.993,11.994c-2.21,0-3.998,1.788-3.998,3.998
			c0,2.21,1.788,3.998,3.998,3.998c11.025,0,19.989-8.968,19.989-19.99C283.852,57.759,282.064,55.97,279.854,55.97z"/>
	</g>
</g>
<g>
	<g>
		<path d="M303.842,135.929h-7.996c-2.209,0-3.998,1.788-3.998,3.998s1.789,3.998,3.998,3.998h7.996c2.21,0,3.998-1.788,3.998-3.998
			S306.052,135.929,303.842,135.929z"/>
	</g>
</g>
<g>
	<g>
		<path d="M255.055,103.947c-6.614,0-11.994-5.38-11.994-11.994s5.381-11.994,11.994-11.994c2.21,0,3.998-1.789,3.998-3.998
			c0-2.21-1.788-3.998-3.998-3.998c-11.025,0-19.989,8.967-19.989,19.989c0,11.022,8.964,19.99,19.989,19.99
			c2.209,0,3.998-1.788,3.998-3.997C259.053,105.735,257.265,103.947,255.055,103.947z"/>
	</g>
</g>
<g>
	<g>
		<path d="M263.051,71.962h-7.996c-2.21,0-3.998,1.788-3.998,3.998c0,2.21,1.788,3.998,3.998,3.998h7.996
			c2.21,0,3.998-1.788,3.998-3.998C267.049,73.75,265.261,71.962,263.051,71.962z"/>
	</g>
</g>
<g>
	<g>
		<path d="M303.826,103.946h-48.779c-2.21,0-3.998,1.788-3.998,3.998c0,2.21,1.788,3.998,3.998,3.998h48.779
			c2.21,0,3.998-1.788,3.998-3.998C307.824,105.734,306.036,103.946,303.826,103.946z"/>
	</g>
</g>
<g>
	<g>
		<path d="M279.854,31.983c-2.21,0-3.998,1.788-3.998,3.998v23.988c0,2.21,1.788,3.998,3.998,3.998c2.21,0,3.998-1.788,3.998-3.999
			V35.981C283.852,33.771,282.064,31.983,279.854,31.983z"/>
	</g>
</g>
<g>
	<g>
		<path d="M279.854,151.921c-2.21,0-3.998,1.788-3.998,3.998v7.996c0,2.21,1.788,3.998,3.998,3.998c2.21,0,3.998-1.788,3.998-3.998
			v-7.996C283.852,153.709,282.064,151.921,279.854,151.921z"/>
	</g>
</g>
<g>
	<g>
		<path d="M383.801,311.838H175.908c-2.21,0-3.998,1.788-3.998,3.998v15.992c0,2.209,1.789,3.998,3.998,3.998h207.893
			c2.209,0,3.998-1.789,3.998-3.998v-15.992C387.799,313.626,386.01,311.838,383.801,311.838z M379.802,327.83H179.906v-7.996
			h199.896V327.83z"/>
	</g>
</g>
<g>
	<g>
		<path d="M327.83,343.821h-95.951c-2.209,0-3.998,1.788-3.998,3.998v15.991c0,2.21,1.789,3.998,3.998,3.998h95.951
			c2.209,0,3.997-1.788,3.997-3.998v-15.991C331.827,345.609,330.039,343.821,327.83,343.821z M323.832,359.813h-87.955v-7.996
			h87.955V359.813z"/>
	</g>
</g>
<g>
	<g>
		<path d="M223.884,415.784h-86.705c-2.21,0-3.998,1.788-3.998,3.998s1.788,3.997,3.998,3.997h86.705
			c2.209,0,3.998-1.787,3.998-3.997C227.882,417.572,226.093,415.784,223.884,415.784z"/>
	</g>
</g>
<g>
	<g>
		<path d="M175.908,431.775h-38.729c-2.21,0-3.998,1.788-3.998,3.998c0,2.21,1.788,3.998,3.998,3.998h38.729
			c2.21,0,3.998-1.788,3.998-3.998C179.906,433.563,178.118,431.775,175.908,431.775z"/>
	</g>
</g>
<g>
	<g>
		<path d="M323.832,415.784c-8.816,0-15.992,7.168-15.992,15.991c0,8.824,7.176,15.992,15.992,15.992
			c8.815,0,15.991-7.168,15.991-15.992C339.823,422.952,332.647,415.784,323.832,415.784z M323.832,439.771
			c-4.412,0-7.996-3.592-7.996-7.996c0-4.403,3.584-7.996,7.996-7.996c4.411,0,7.995,3.593,7.995,7.996
			C331.827,436.179,328.243,439.771,323.832,439.771z"/>
	</g>
</g>
<g>
	<g>
		<path d="M363.81,415.784c-8.815,0-15.991,7.168-15.991,15.991c0,8.824,7.176,15.992,15.991,15.992
			c8.817,0,15.993-7.168,15.992-15.992C379.802,422.952,372.626,415.784,363.81,415.784z M363.81,439.771
			c-4.412,0-7.996-3.592-7.996-7.996c0-4.403,3.584-7.996,7.996-7.996c4.412,0,7.996,3.593,7.996,7.996
			C371.806,436.179,368.222,439.771,363.81,439.771z"/>
	</g>
</g>
<g>
	<g>
		<path d="M403.79,415.784c-8.815,0-15.991,7.168-15.991,15.991c0,8.824,7.176,15.992,15.991,15.992s15.991-7.168,15.991-15.992
			C419.781,422.952,412.605,415.784,403.79,415.784z M403.79,439.771c-4.412,0-7.996-3.592-7.996-7.996
			c0-4.403,3.584-7.996,7.996-7.996c4.411,0,7.996,3.593,7.996,7.996C411.786,436.179,408.201,439.771,403.79,439.771z"/>
	</g>
</g>
<g>
</g>
<g>
</g>
<g>
</g>
<g>
</g>
<g>
</g>
<g>
</g>
<g>
</g>
<g>
</g>
<g>
</g>
<g>
</g>
<g>
</g>
<g>
</g>
<g>
</g>
<g>
</g>
<g>
</g>
</svg>
