<svg height="512" viewBox="0 0 60 60" width="512" xmlns="http://www.w3.org/2000/svg">
    <g id="Page-1" fill="none" fill-rule="evenodd">
        <g id="043---Boat-Propeller" fill="#5e5e5e" fill-rule="nonzero" transform="translate(-1)">
            <path id="Shape"
                  d="m35 34c0-1.6568542-1.3431458-3-3-3s-3 1.3431458-3 3 1.3431458 3 3 3 3-1.3431458 3-3zm-4 0c0-.5522847.4477153-1 1-1s1 .4477153 1 1-.4477153 1-1 1-1-.4477153-1-1z"/>
            <path id="Shape"
                  d="m33 28c0-.5522847-.4477153-1-1-1-3.8641657.0044086-6.9955914 3.1358343-7 7 0 .5522847.4477153 1 1 1s1-.4477153 1-1c.0033061-2.7600532 2.2399468-4.9966939 5-5 .5522847 0 1-.4477153 1-1z"/>
            <path id="Shape"
                  d="m39 34c0-.5522847-.4477153-1-1-1s-1 .4477153-1 1c-.0033061 2.7600532-2.2399468 4.9966939-5 5-.5522847 0-1 .4477153-1 1s.4477153 1 1 1c3.8641657-.0044086 6.9955914-3.1358343 7-7z"/>
            <path id="Shape"
                  d="m47.114 28.623c1.896162-2.2343909 2.9210908-5.0786926 2.886-8.009.0610281-5.3194279-1.7931512-10.483374-5.224-14.549-2.906062-3.48368486-7.0815316-5.66445981-11.601-6.059-.56517-.04509059-1.1232725.14941068-1.538.536-.4048311.37699173-.635439.90481961-.637 1.458v21.051c-2.4058921.2203174-4.6712833 1.2304787-6.443 2.873-1.3284065-1.2016982-2.9573577-2.0213571-4.714-2.372-2.8229416-.5692155-5.7566312-.0809197-8.243 1.372-4.54084833 2.5324919-7.98367307 6.6560449-9.665 11.576-1.47291042 4.2567445-1.20478964 8.9229805.746 12.983.24772426.5054032.69316414.8860715 1.231 1.052.18990311.0581669.38738845.0878234.586.088.34543732-.0004775.68471427-.091503.984-.264l17.536-10.03c1.4051772 1.9942982 3.4313581 3.4669892 5.762 4.188-.4536644 1.8901581-.372645 3.8692486.234 5.716.9061448 2.8160704 2.8197476 5.1986376 5.374 6.691 3.3052509 1.9911221 7.0864048 3.0537835 10.945 3.076 1.407817.0003433 2.8116897-.1488266 4.188-.445 4.5892685-.9396581 8.6118416-3.6763473 11.171-7.6.2868172-.4439861.3789896-.9861767.255-1.5-.1268983-.5321653-.4638215-.9902943-.934-1.27l-17.988-10.685c.9869521-2.1664921 1.2329562-4.5977155.7-6.918 1.7069284-.5646546 3.2254259-1.5884035 4.389-2.959zm-42.639 19.977c-1.71684318-3.5908361-1.94754785-7.7140533-.642-11.474 1.52974251-4.4515288 4.65258406-8.1795612 8.767-10.466 2.0604401-1.2109577 4.494799-1.6203629 6.838-1.15 1.4074539.2831644 2.7115528.9433365 3.773 1.91-2.4370061 3.21839-2.8956539 7.5201371-1.192 11.18zm18.525-14.6c0-4.9705627 4.0294373-9 9-9s9 4.0294373 9 9-4.0294373 9-9 9c-4.9682782-.0055111-8.9944889-4.0317218-9-9zm36.01 16.875c-2.2728101 3.475028-5.8411951 5.8965607-9.91 6.725-4.7026312.9605168-9.5945442.1029134-13.69-2.4-2.1316156-1.2428203-3.7299492-3.2281863-4.489-5.576-.4866552-1.5220281-.539636-3.1495435-.153-4.7 4.0293202.4718737 7.9877668-1.3307467 10.277-4.68zm-16.9-21.209c-1.5958804-3.7071248-5.0909578-6.2449884-9.11-6.615l.027-21.051c3.9916832.35709226 7.6761547 2.29128684 10.237 5.374 3.1162161 3.7020798 4.7971663 8.401358 4.736 13.24.0334085 2.4495561-.8188549 4.8287915-2.4 6.7-.9266783 1.089416-2.1350522 1.9030706-3.493 2.352z"/>
            <path id="Shape"
                  d="m41.752 8.715c-1.4504314-1.71775658-3.3006528-3.05288291-5.388-3.888-.3327929-.13004467-.7096842-.07266801-.9887027.15051675-.2790184.22318477-.4177744.57827056-.364.9315.0537745.35322944.2919098.65093858.6247027.78098325 1.7826767.71837571 3.3620935 1.86276619 4.6 3.333 2.4868351 2.9686605 3.8228342 6.732813 3.764 10.605 0 .5522847.4477153 1 1 1s1-.4477153 1-1c.061001-4.3523587-1.4469444-8.5812084-4.248-11.913z"/>
            <path id="Shape"
                  d="m13.588 28.4c-3.68381948 2.0421726-6.48177092 5.3751365-7.855 9.357-.72901569 2.1274115-.91666388 4.4029035-.546 6.621.08307637.4786733.49817138.8283824.984.829.05732723-.0000295.11454312-.0050485.171-.015.26138843-.0451847.49411421-.1923731.64696293-.4091745s.21329508-.4854498.16803707-.7468255c-.31317555-1.8934922-.15028209-3.8351547.474-5.65 1.21890091-3.5130458 3.6939975-6.4511767 6.949-8.249.3102852-.1772037.5024634-.5064819.5041431-.8637986.0016796-.3573167-.1873945-.688387-.496-.8685-.3086056-.180113-.6898579-.1819051-1.0001431-.0047014z"/>
            <path id="Shape"
                  d="m36.038 52.12c-.1369466.2272668-.1779562.4996433-.1139994.7571586s.2276361.479055.4549994.6158414c2.6415043 1.6155636 5.6727161 2.4821673 8.769 2.507 1.1048524.001067 2.2065838-.117287 3.286-.353 2.3599125-.5013105 4.5455952-1.6169194 6.336-3.234.40731-.3730684.4350683-1.00569.062-1.413-.3730684-.40731-1.00569-.4350683-1.413-.062-1.5299496 1.3808079-3.3971147 2.3335346-5.413 2.762-3.6486903.7304437-7.4386131.0446822-10.6-1.918-.4714166-.2823186-1.0823105-.1313814-1.368.338z"/>
        </g>
    </g>
</svg>