<svg height="512" viewBox="0 0 60 60" width="512" xmlns="http://www.w3.org/2000/svg">
    <g id="Page-1" fill="none" fill-rule="evenodd">
        <g fill="#5e5e5e" fill-rule="nonzero" transform="translate(-1)">
            <path id="Shape"
                  d="m1.45 56c-.53937917.7802828-.60107179 1.7954722-.16014773 2.6353276.44092407.8398553 1.31158551 1.3655589 2.26014773 1.3646724h51.45c.7113268-.002145 1.3675874-.3832487 1.722-1h2.278c1.1045695 0 2-.8954305 2-2v-9c0-1.1045695-.8954305-2-2-2h-2.278c-.3544126-.6167513-1.0106732-.997855-1.722-1h-.228l-10.772-41.128v-2.872c0-.55228475-.4477153-1-1-1s-1 .44771525-1 1v.027c-27.38.507-32.956 21.405-33.843 25.973h-2.157c-.55228475 0-1 .4477153-1 1s.44771525 1 1 1h36v16h-2.219l-.621-2.484c-.2222319-.8910181-1.0226862-1.5162055-1.941-1.516h-.6l-2.046-4.093c1.0263339-.2980939 1.6314966-1.3562439 1.368-2.392l-.122-.485c-.4429199-1.7823291-2.0444631-3.0326965-3.881-3.03h-26.938c-1.45943726-.0027654-2.70808095 1.0474881-2.95538732 2.485822-.24730638 1.4383339.57883984 2.8453257 1.95538732 3.330178v4.184c-1.65685425 0-3 1.3431458-3 3v3c-.00060992.2658175.1052746.5208048.294.708l4.2 4.2c-1.55389496 1.1438966-2.91851741 2.5247164-4.044 4.092zm2.1 2c-.30352835-.0005504-.54944963-.2464717-.55-.55.00000132-.1124985.03494428-.2222194.1-.314.27649876-.3967063.57706276-.7760848.9-1.136h51v2zm53.45-1v-2h2v2zm2-4h-2v-5h2zm-4 1h-48.886c3.742-3.04 11.235-7 24.886-7h24zm-13-42.281-17.513-4.38c4.397-2.467 10.113-4.169 17.513-4.313zm-19.883-2.912 19.883 4.973v5.94l-25.054-6.259c1.5239296-1.7598366 3.2609442-3.3231833 5.171-4.654zm-11.925 18.193c.9404724-4.2747177 2.7712534-8.3032536 5.373-11.823l26.435 6.603v5.22zm33.808-15.236 8.705 33.236h-8.705zm-27.868 25.236-2.667 4h-2.6l2.667-4zm2.4 0h13.85l2 4h-18.514zm-13.532-4h26.938c.9179409.0002536 1.7178583.6253437 1.94 1.516l.122.484h-29c-.55228475 0-1-.4477153-1-1s.44771525-1 1-1zm1 4h5.132l-2.667 4h-2.465zm-3 7c0-.5522847.44771525-1 1-1h33.219l.5 2h-6.719c-3.7812115-.02501-7.5562245.3098324-11.274 1h-16.726zm1.414 4h8.221c-1.9127772.7290267-3.74734993 1.6486582-5.476 2.745z"/>
            <path id="Shape"
                  d="m25 50h-2c-.5522847 0-1 .4477153-1 1s.4477153 1 1 1h2c.5522847 0 1-.4477153 1-1s-.4477153-1-1-1z"/>
            <path id="Shape"
                  d="m31 50h-2c-.5522847 0-1 .4477153-1 1s.4477153 1 1 1h2c.5522847 0 1-.4477153 1-1s-.4477153-1-1-1z"/>
            <path id="Shape"
                  d="m37 50h-2c-.5522847 0-1 .4477153-1 1s.4477153 1 1 1h2c.5522847 0 1-.4477153 1-1s-.4477153-1-1-1z"/>
            <path id="Shape"
                  d="m51 50h-2c-.5522847 0-1 .4477153-1 1s.4477153 1 1 1h2c.5522847 0 1-.4477153 1-1s-.4477153-1-1-1z"/>
        </g>
    </g>
</svg>