<svg fill="#5e5e5e" id="Layer_3" enable-background="new 0 0 64 64" height="512" viewBox="0 0 64 64" width="512"
     xmlns="http://www.w3.org/2000/svg">
    <path d="m51.456 27.023-.478-2.233c-.099-.46-.506-.79-.978-.79h-1.236l-2.455-9h5.691c.551 0 1 .449 1 1s-.449 1-1 1h-3v2h3c1.654 0 3-1.346 3-3s-1.346-3-3-3h-7c-.312 0-.605.146-.795.393-.189.248-.252.569-.17.87l1.373 5.035-17.887 3.577-1.085-2.893c1.291-.044 2.539-.431 3.618-1.15.818-.544 1.768-.832 2.749-.832h1.197v-2h-1.197c-1.377 0-2.711.404-3.857 1.168-.818.544-1.768.832-2.749.832h-.395c-.981 0-1.931-.288-2.748-.832l-1.5-1-1.109 1.664 1.5 1c.702.468 1.478.783 2.287.97l1.495 3.987-5.991 5.286c-1.988-1.357-4.298-2.075-6.736-2.075-6.617 0-12 5.383-12 12s5.383 12 12 12c6.279 0 11.438-4.85 11.949-11h2.152c.399 1.956 1.943 3.5 3.899 3.899v2.101h-4v2h5c.552 0 1-.447 1-1v-3.101c2.279-.465 4-2.484 4-4.899 0-2.024-1.214-3.762-2.948-4.548l12.346-11.523.293 1.071h-.691c-.302 0-.588.136-.778.371-.189.235-.263.543-.2.838l.651 3.037c-4.079 2.018-6.673 6.151-6.673 10.754 0 6.617 5.383 12 12 12s12-5.383 12-12c0-6.463-5.139-11.734-11.544-11.977zm-6.348-5.625-13.437 12.541-3.437-9.166zm-18.007 6.053-12.467 10.549h-1.989l13.835-12.207zm-6.169 10.549c-.095-.76-.294-1.502-.599-2.202l1.566-1.325c.561 1.101.906 2.292 1.029 3.527zm-11.868 1.354c.148.388.52.646.936.646h5 3.91c-.478 2.833-2.942 5-5.91 5-3.309 0-6-2.691-6-6s2.691-6 6-6c.657 0 1.302.119 1.918.327l-5.58 4.923c-.312.275-.421.715-.274 1.104zm8.666-1.354.976-.826c.086.27.154.545.201.826zm-4.73 11c-5.514 0-10-4.486-10-10s4.486-10 10-10c1.856 0 3.621.504 5.177 1.451l-1.599 1.411c-1.107-.555-2.331-.862-3.578-.862-4.411 0-8 3.589-8 8s3.589 8 8 8c4.072 0 7.436-3.06 7.931-7h2.019c-.504 5.046-4.773 9-9.95 9zm14.101-11h-2.146c-.142-1.713-.643-3.365-1.481-4.86l4.373-3.7 1.917 5.113c-1.345.679-2.354 1.93-2.663 3.447zm7.899 1c0 1.302-.839 2.402-2 2.816v-3.816h-2v3.816c-1.161-.414-2-1.514-2-2.816 0-1.654 1.346-3 3-3s3 1.346 3 3zm12.016-4.484 1.006 4.694c.099.461.506.79.978.79h4c.302 0 .588-.137.778-.371.189-.235.263-.543.2-.839l-1.182-5.515c2.434.766 4.204 3.042 4.204 5.725 0 3.309-2.691 6-6 6s-6-2.691-6-6c0-1.73.758-3.36 2.016-4.484zm4.747 3.484h-1.955l-2.572-12h1.955zm-.763 11c-5.514 0-10-4.486-10-10 0-3.663 1.973-6.963 5.109-8.719l.444 2.072c-2.189 1.471-3.553 3.969-3.553 6.647 0 4.411 3.589 8 8 8s8-3.589 8-8c0-3.956-2.889-7.241-6.665-7.879l-.445-2.076c5.098.452 9.11 4.742 9.11 9.955 0 5.514-4.486 10-10 10z"/>
</svg>